Coordinates
version=1
nRows=29
nColumns=22
inDegrees=yes

Units are S.I. units (second, meters, Newtons, ...)
If the header above contains a line with 'inDegrees', this indicates whether rotational values are in degrees (yes) or radians (no).

endheader
time	pelvis_tilt	pelvis_list	pelvis_rotation	pelvis_tx	pelvis_ty	pelvis_tz	hip_flexion_r	hip_adduction_r	hip_rotation_r	knee_angle_r	ankle_angle_r	subtalar_angle_r	hip_flexion_l	hip_adduction_l	hip_rotation_l	knee_angle_l	ankle_angle_l	subtalar_angle_l	lumbar_extension	lumbar_bending	lumbar_rotation
      2.56000000	      3.33317334	     -3.53650791	     34.34927359	      0.22532841	      1.06799650	      0.93702608	     15.57638086	      4.09963348	      0.85256987	    -18.99657825	      5.41971864	      1.34676710	     -6.24899546	      0.53302358	     16.79587463	    -36.22993602	      4.80542221	     11.11705391	     -4.05493587	      2.26776861	     -9.98279340
      2.57000000	      3.60789473	     -3.68659556	     35.12112548	      0.23328051	      1.06881788	      0.93295274	     14.80124915	      4.31681578	      0.06334470	    -18.81132809	      5.80733541	      1.03848327	     -5.07384920	      0.16020345	     16.28280052	    -38.80179134	      3.32657446	     12.96954774	     -4.16615520	      2.57538515	     -9.89480611
      2.58000000	      3.89698465	     -3.85638672	     35.84439451	      0.24107716	      1.06951848	      0.92907222	     14.00779421	      4.58816519	     -0.69159927	    -18.54954615	      6.16095433	      0.77160851	     -3.78644229	     -0.29099595	     15.59804357	    -41.40580274	      2.03872683	     14.44433269	     -4.30105304	      2.89704814	     -9.70662161
      2.59000000	      4.21952713	     -4.06277059	     36.52677474	      0.24869231	      1.07008274	      0.92539766	     13.22256517	      4.93797698	     -1.42335834	    -18.26803344	      6.50681783	      0.54831394	     -2.39854396	     -0.85178750	     14.78043142	    -44.02423889	      1.02171247	     15.35871978	     -4.46851195	      3.26452000	     -9.44908303
      2.60000000	      4.59401898	     -4.29384933	     37.16204186	      0.25620605	      1.07058580	      0.92190017	     12.40709693	      5.37077348	     -2.11420658	    -17.94294107	      6.83095130	      0.39985216	     -0.96788990	     -1.53338594	     13.85296499	    -46.59219768	      0.30541003	     15.57993115	     -4.68032177	      3.67622409	     -9.10649245
      2.61000000	      4.93962463	     -4.55351676	     37.73331509	      0.26362134	      1.07096090	      0.91860647	     11.65499053	      5.84537088	     -2.69414573	    -17.61692857	      7.15239696	      0.23003428	      0.55638974	     -2.27075866	     12.88426542	    -49.07177535	     -0.16601374	     15.20022300	     -4.85568406	      4.07902899	     -8.70731541
      2.62000000	      5.31487148	     -4.80806795	     38.24130001	      0.27099082	      1.07135569	      0.91544988	     10.88101016	      6.36492896	     -3.19609737	    -17.27114191	      7.42740962	      0.11282679	      2.05991047	     -3.06614016	     11.90182787	    -51.39669771	     -0.36944381	     14.12191740	     -5.06451955	      4.48464830	     -8.23348348
      2.63000000	      5.68554788	     -5.04796509	     38.68553552	      0.27832737	      1.07178882	      0.91238815	     10.09403000	      6.90218108	     -3.56143320	    -16.89162077	      7.68798622	      0.01438755	      3.53714794	     -3.86285040	     10.96685878	    -53.52335584	     -0.39906977	     12.46735253	     -5.27253680	      4.86278152	     -7.71852063
      2.64000000	      6.03642607	     -5.24952354	     39.06967762	      0.28559152	      1.07227873	      0.90936491	      9.30328971	      7.41571726	     -3.82878266	    -16.50419956	      7.91609150	     -0.07551569	      4.96341397	     -4.60966516	     10.10333893	    -55.42299268	     -0.24402249	     10.43049401	     -5.48597295	      5.19163894	     -7.18518664
      2.65000000	      6.35033069	     -5.40229114	     39.41148444	      0.29276639	      1.07283804	      0.90630388	      8.50241059	      7.87753032	     -4.01962188	    -16.09290478	      8.13086646	     -0.16584350	      6.32364144	     -5.25514308	      9.36171013	    -57.06788316	      0.09120185	      8.18677473	     -5.69013727	      5.45233143	     -6.62536773
      2.66000000	      6.62156953	     -5.51182099	     39.72249506	      0.29984340	      1.07347057	      0.90318962	      7.69441095	      8.28295372	     -4.16686873	    -15.64531371	      8.29576214	     -0.26225651	      7.62650491	     -5.79039540	      8.74149461	    -58.45447689	      0.48344008	      5.94394048	     -5.87575972	      5.64696014	     -6.07898274
      2.67000000	      6.83969009	     -5.54959315	     40.02033737	      0.30675312	      1.07417007	      0.89996218	      6.87851921	      8.59272421	     -4.28527658	    -15.18769350	      8.44925953	     -0.36876610	      8.85390344	     -6.16640595	      8.24670406	    -59.57203626	      0.95917943	      3.81640874	     -6.05753792	      5.75242035	     -5.55616997
      2.68000000	      7.00119679	     -5.52517435	     40.30618817	      0.31349181	      1.07491841	      0.89661277	      6.06154696	      8.80872494	     -4.40603726	    -14.71310257	      8.57006015	     -0.48460862	     10.01471998	     -6.38545224	      7.85814975	    -60.42492974	      1.45135075	      1.93722065	     -6.22735235	      5.77767636	     -5.06161192
      2.69000000	      7.11193119	     -5.44976296	     40.58448210	      0.32005413	      1.07568299	      0.89316151	      5.25292527	      8.94296673	     -4.54060303	    -14.23463258	      8.67281672	     -0.60543939	     11.11640801	     -6.45995039	      7.56816664	    -61.02656545	      1.93951362	      0.39056027	     -6.38748454	      5.73386856	     -4.58648365
      2.70000000	      7.16643719	     -5.32074433	     40.85928851	      0.32641894	      1.07643807	      0.88958968	      4.46330609	      8.98607788	     -4.70078899	    -13.76851414	      8.78795375	     -0.72502926	     12.15866849	     -6.38680265	      7.35467705	    -61.37719461	      2.42599578	     -0.81660505	     -6.53905427	      5.62009413	     -4.13166899
      2.71000000	      7.16810572	     -5.14311650	     41.13307544	      0.33262777	      1.07716070	      0.88589206	      3.69531999	      8.94597626	     -4.89071749	    -13.32437945	      8.92934053	     -0.82941655	     13.14040155	     -6.18226418	      7.19744170	    -61.48572162	      2.92183603	     -1.67789481	     -6.67753627	      5.43746153	     -3.70381870
      2.72000000	      7.12015618	     -4.92777311	     41.40347093	      0.33869352	      1.07783213	      0.88205768	      2.94601261	      8.83534166	     -5.08786777	    -12.88973058	      9.09701937	     -0.90843915	     14.06607384	     -5.86678679	      7.07532014	    -61.35975777	      3.40040064	     -2.25314175	     -6.80012002	      5.20339391	     -3.30530158
      2.73000000	      7.03401874	     -4.70617082	     41.66913356	      0.34466045	      1.07839869	      0.87810248	      2.24096844	      8.68714772	     -5.31338458	    -12.48982600	      9.29811683	     -0.94208930	     14.94951115	     -5.49362581	      6.96577593	    -61.01620734	      3.92756732	     -2.52435773	     -6.88966595	      4.95054150	     -2.92669210
      2.74000000	      6.93118200	     -4.45965645	     41.93837588	      0.35050588	      1.07889261	      0.87402403	      1.54373844	      8.50406366	     -5.53904788	    -12.11559452	      9.53857598	     -0.96603996	     15.76195042	     -5.05960879	      6.87884481	    -60.46264711	      4.42632399	     -2.71223172	     -6.98758300	      4.67495489	     -2.54925831
      2.75000000	      6.80806170	     -4.21731026	     42.19549423	      0.35630608	      1.07927065	      0.86986267	      0.87903293	      8.30831752	     -5.77559454	    -11.77189210	      9.81186509	     -0.96935479	     16.52509278	     -4.62059920	      6.76088176	    -59.70974873	      4.95378523	     -2.76891311	     -7.06358316	      4.39442367	     -2.18996601
      2.76000000	      6.69162498	     -3.96018651	     42.44382301	      0.36205434	      1.07958733	      0.86562356	      0.20086529	      8.10661822	     -5.98257703	    -11.43836359	     10.09893657	     -0.95729676	     17.20354036	     -4.18100317	      6.62102314	    -58.76739089	      5.46534699	     -2.69395004	     -7.15900596	      4.11106530	     -1.82791343
      2.77000000	      6.55299437	     -3.75174248	     42.67488016	      0.36775653	      1.07971715	      0.86137415	     -0.38766754	      7.92333063	     -6.21187211	    -11.17531242	     10.42247285	     -0.94437436	     17.88145077	     -3.79389254	      6.42642610	    -57.66804320	      5.99761357	     -2.56973187	     -7.20342483	      3.85200646	     -1.45198932
      2.78000000	      6.42353206	     -3.55388760	     42.88678329	      0.37345187	      1.07976525	      0.85709472	     -0.97161893	      7.75604238	     -6.40489304	    -10.92527536	     10.74650048	     -0.92706890	     18.49849456	     -3.46453634	      6.15283089	    -56.40991330	      6.51414402	     -2.36602467	     -7.25040122	      3.60639944	     -1.08403199
      2.79000000	      6.30038380	     -3.38986688	     43.08440935	      0.37914233	      1.07968843	      0.85279996	     -1.52317578	      7.61977002	     -6.57328833	    -10.70212015	     11.07106761	     -0.91097071	     19.08310333	     -3.21569031	      5.79191122	    -55.01774050	      7.01928298	     -2.14806360	     -7.27669786	      3.39028844	     -0.72061129
      2.80000000	      6.17821499	     -3.25884996	     43.26092305	      0.38482562	      1.07948350	      0.84850472	     -2.02933108	      7.50752917	     -6.73122932	    -10.52253552	     11.41225450	     -0.90215967	     19.64160049	     -3.05275441	      5.31437133	    -53.50563366	      7.49627706	     -1.95990931	     -7.28279432	      3.19805354	     -0.37413235
      2.81000000	      6.08127655	     -3.12232932	     43.42618537	      0.39050959	      1.07924244	      0.84414621	     -2.56725943	      7.41063258	     -6.83758640	    -10.33355878	     11.71597904	     -0.89838505	     20.11333590	     -2.94716316	      4.74812946	    -51.86918888	      7.93403607	     -1.73293743	     -7.31124505	      3.01659140	     -0.02252638
      2.82000000	      5.95675970	     -3.03172941	     43.56572080	      0.39616981	      1.07881536	      0.83977414	     -3.00829799	      7.32096179	     -6.95231542	    -10.22705559	     12.08814232	     -0.91268521	     20.59573900	     -2.91434918	      4.04595549	    -50.14602338	      8.30772699	     -1.62556128	     -7.28322924	      2.85063730	      0.32395922
      2.83000000	      5.84435628	     -2.92827953	     43.68518178	      0.40184251	      1.07835538	      0.83532986	     -3.46984663	      7.22779816	     -7.02752741	    -10.12556738	     12.43198394	     -0.94330229	     20.99496365	     -2.92947814	      3.21751753	    -48.32227800	      8.62400512	     -1.52913308	     -7.27201454	      2.68061942	      0.65629375
      2.84000000	      5.73232935	     -2.82164617	     43.79157634	      0.40751790	      1.07783659	      0.83079590	     -3.92577162	      7.12809986	     -7.08829998	    -10.04889631	     12.76995237	     -0.99116947	     21.33257203	     -2.98489223	      2.26119466	    -46.41769863	      8.87348563	     -1.46422177	     -7.25743040	      2.50947305	      0.96333123
